<?xml version="1.0" standalone="no"?>
<!DOCTYPE svg PUBLIC "-//W3C//DTD SVG 20010904//EN"
 "http://www.w3.org/TR/2001/REC-SVG-20010904/DTD/svg10.dtd">
<svg version="1.0" xmlns="http://www.w3.org/2000/svg"
 width="762.000000pt" height="762.000000pt" viewBox="0 0 762.000000 762.000000"
 preserveAspectRatio="xMidYMid meet">
<metadata>
Created by potrace 1.11, written by Peter Selinger 2001-2013
</metadata>
<g transform="translate(0.000000,762.000000) scale(0.100000,-0.100000)"
fill="#000000" stroke="none">
<path d="M3058 7058 l-3 -193 -192 -3 -193 -2 0 -190 0 -190 -190 0 -190 0 -2
-575 -3 -575 72 0 c111 0 103 15 103 -191 l0 -179 95 0 95 0 2 -387 3 -388
198 -3 197 -2 0 390 0 390 90 0 90 0 0 -385 0 -385 613 0 612 0 0 382 0 383
188 3 187 2 0 -385 0 -385 615 0 615 0 0 575 0 575 -1500 0 -1500 0 0 185 0
185 188 2 187 3 3 193 2 192 1146 0 c761 0 1143 3 1139 10 -4 7 60 10 184 10
l191 0 0 370 0 370 -190 0 -190 0 0 195 0 195 -1330 0 -1330 0 -2 -192z"/>
<path d="M1890 3230 l0 -190 -190 0 -190 0 2 -187 3 -188 193 -3 192 -2 0
-200 0 -200 -195 0 -195 0 0 -190 0 -190 -190 0 -190 0 0 -765 0 -765 765 0
765 0 0 770 0 770 190 0 190 0 0 -770 0 -770 195 0 195 0 0 960 0 960 -195 0
-195 0 0 195 0 195 -190 0 -190 0 0 380 0 380 -385 0 -385 0 0 -190z"/>
<path d="M4959 2638 c-1 -18 -1 -219 0 -1325 l1 -963 195 0 195 0 0 765 0 765
190 0 190 0 0 -765 0 -765 380 0 380 0 0 765 0 765 -190 0 -190 0 0 190 0 190
-195 0 -195 0 0 195 0 195 -380 0 c-297 0 -380 -3 -381 -12z"/>
</g>
</svg>
